<mxfile host="app.diagrams.net" modified="2023-07-02T15:40:32.542Z" agent="Mozilla/5.0 (Windows NT 10.0; Win64; x64) AppleWebKit/537.36 (KHTML, like Gecko) Chrome/114.0.0.0 Safari/537.36" etag="oAy2XiI3qYKYZaXx5kVl" version="21.5.2" type="device">
  <diagram name="Copia de Diagrama de flujos" id="byBiHym7ntXCH05FUIv-">
    <mxGraphModel dx="3190" dy="2285" grid="0" gridSize="10" guides="1" tooltips="1" connect="1" arrows="1" fold="1" page="0" pageScale="1" pageWidth="827" pageHeight="1169" math="0" shadow="0">
      <root>
        <mxCell id="DJVKlbWjFwOTCAUO51Do-0" />
        <mxCell id="DJVKlbWjFwOTCAUO51Do-1" parent="DJVKlbWjFwOTCAUO51Do-0" />
        <mxCell id="DJVKlbWjFwOTCAUO51Do-20" value="" style="edgeStyle=none;curved=1;rounded=0;orthogonalLoop=1;jettySize=auto;html=1;fontSize=12;startSize=8;endSize=8;" edge="1" parent="DJVKlbWjFwOTCAUO51Do-1" source="DJVKlbWjFwOTCAUO51Do-24" target="DJVKlbWjFwOTCAUO51Do-32">
          <mxGeometry relative="1" as="geometry" />
        </mxCell>
        <mxCell id="DJVKlbWjFwOTCAUO51Do-21" value="&lt;font style=&quot;vertical-align: inherit;&quot;&gt;&lt;font style=&quot;vertical-align: inherit;&quot;&gt;SI&lt;/font&gt;&lt;/font&gt;" style="edgeLabel;html=1;align=center;verticalAlign=middle;resizable=0;points=[];fontSize=16;" vertex="1" connectable="0" parent="DJVKlbWjFwOTCAUO51Do-20">
          <mxGeometry x="0.2466" y="-1" relative="1" as="geometry">
            <mxPoint x="-2" y="-8" as="offset" />
          </mxGeometry>
        </mxCell>
        <mxCell id="DJVKlbWjFwOTCAUO51Do-22" value="" style="edgeStyle=none;curved=1;rounded=0;orthogonalLoop=1;jettySize=auto;html=1;fontSize=12;startSize=8;endSize=8;" edge="1" parent="DJVKlbWjFwOTCAUO51Do-1" source="DJVKlbWjFwOTCAUO51Do-24" target="DJVKlbWjFwOTCAUO51Do-26">
          <mxGeometry relative="1" as="geometry" />
        </mxCell>
        <mxCell id="DJVKlbWjFwOTCAUO51Do-23" value="NO" style="edgeLabel;html=1;align=center;verticalAlign=middle;resizable=0;points=[];fontSize=16;" vertex="1" connectable="0" parent="DJVKlbWjFwOTCAUO51Do-22">
          <mxGeometry x="-0.4539" y="-1" relative="1" as="geometry">
            <mxPoint as="offset" />
          </mxGeometry>
        </mxCell>
        <mxCell id="DJVKlbWjFwOTCAUO51Do-24" value="&lt;font style=&quot;vertical-align: inherit;&quot;&gt;&lt;font style=&quot;vertical-align: inherit;&quot;&gt;¿Elige modo &quot;Óptimo&quot; o &quot;Flash&quot;?&lt;/font&gt;&lt;/font&gt;" style="rhombus;whiteSpace=wrap;html=1;rounded=1;" vertex="1" parent="DJVKlbWjFwOTCAUO51Do-1">
          <mxGeometry x="101.5" y="287" width="106.5" height="114" as="geometry" />
        </mxCell>
        <mxCell id="OaD3FQ7PiitbQFgvb0ac-13" style="edgeStyle=none;curved=1;rounded=0;orthogonalLoop=1;jettySize=auto;html=1;fontSize=12;startSize=8;endSize=8;" edge="1" parent="DJVKlbWjFwOTCAUO51Do-1" source="DJVKlbWjFwOTCAUO51Do-26" target="OaD3FQ7PiitbQFgvb0ac-12">
          <mxGeometry relative="1" as="geometry" />
        </mxCell>
        <mxCell id="DJVKlbWjFwOTCAUO51Do-26" value="&lt;font style=&quot;vertical-align: inherit;&quot;&gt;&lt;font style=&quot;vertical-align: inherit;&quot;&gt;Muestra opciones de tipo de transporte Personal y se&amp;nbsp; habilitada modos&lt;/font&gt;&lt;/font&gt;" style="whiteSpace=wrap;html=1;rounded=0;" vertex="1" parent="DJVKlbWjFwOTCAUO51Do-1">
          <mxGeometry x="-184" y="314" width="120" height="60" as="geometry" />
        </mxCell>
        <mxCell id="OaD3FQ7PiitbQFgvb0ac-4" style="edgeStyle=none;curved=1;rounded=0;orthogonalLoop=1;jettySize=auto;html=1;fontSize=12;startSize=8;endSize=8;" edge="1" parent="DJVKlbWjFwOTCAUO51Do-1" source="DJVKlbWjFwOTCAUO51Do-30" target="OaD3FQ7PiitbQFgvb0ac-0">
          <mxGeometry relative="1" as="geometry" />
        </mxCell>
        <mxCell id="DJVKlbWjFwOTCAUO51Do-30" value="Muestra costo de viaje" style="whiteSpace=wrap;html=1;rounded=0;" vertex="1" parent="DJVKlbWjFwOTCAUO51Do-1">
          <mxGeometry x="39" y="1765" width="112" height="50.5" as="geometry" />
        </mxCell>
        <mxCell id="DJVKlbWjFwOTCAUO51Do-31" value="" style="edgeStyle=orthogonalEdgeStyle;rounded=0;orthogonalLoop=1;jettySize=auto;html=1;" edge="1" parent="DJVKlbWjFwOTCAUO51Do-1" source="DJVKlbWjFwOTCAUO51Do-32" target="DJVKlbWjFwOTCAUO51Do-34">
          <mxGeometry relative="1" as="geometry" />
        </mxCell>
        <mxCell id="DJVKlbWjFwOTCAUO51Do-32" value="&lt;font style=&quot;vertical-align: inherit;&quot;&gt;&lt;font style=&quot;vertical-align: inherit;&quot;&gt;Sistema asigna tipo de transporte automáticamente&lt;/font&gt;&lt;/font&gt;" style="whiteSpace=wrap;html=1;rounded=0;" vertex="1" parent="DJVKlbWjFwOTCAUO51Do-1">
          <mxGeometry x="93" y="450" width="120" height="60" as="geometry" />
        </mxCell>
        <mxCell id="VWVHDejCQI2ahtRvYN2B-2" value="" style="edgeStyle=none;curved=1;rounded=0;orthogonalLoop=1;jettySize=auto;html=1;fontSize=12;startSize=8;endSize=8;" edge="1" parent="DJVKlbWjFwOTCAUO51Do-1" source="DJVKlbWjFwOTCAUO51Do-34" target="DJVKlbWjFwOTCAUO51Do-72">
          <mxGeometry relative="1" as="geometry" />
        </mxCell>
        <mxCell id="DJVKlbWjFwOTCAUO51Do-34" value="Se desactiva otras opciones de tipo de transporte&amp;nbsp;" style="whiteSpace=wrap;html=1;rounded=0;" vertex="1" parent="DJVKlbWjFwOTCAUO51Do-1">
          <mxGeometry x="93" y="553" width="120" height="60" as="geometry" />
        </mxCell>
        <mxCell id="ie_WDVUmgcFGtr-036Cm-3" value="" style="edgeStyle=none;curved=1;rounded=0;orthogonalLoop=1;jettySize=auto;html=1;fontSize=12;startSize=8;endSize=8;" edge="1" parent="DJVKlbWjFwOTCAUO51Do-1" source="DJVKlbWjFwOTCAUO51Do-35" target="DJVKlbWjFwOTCAUO51Do-24">
          <mxGeometry relative="1" as="geometry" />
        </mxCell>
        <mxCell id="DJVKlbWjFwOTCAUO51Do-35" value="Selecciona modo de ruta" style="whiteSpace=wrap;html=1;rounded=0;" vertex="1" parent="DJVKlbWjFwOTCAUO51Do-1">
          <mxGeometry x="98" y="188.5" width="120" height="60" as="geometry" />
        </mxCell>
        <mxCell id="DJVKlbWjFwOTCAUO51Do-38" value="FIN" style="whiteSpace=wrap;html=1;rounded=1;" vertex="1" parent="DJVKlbWjFwOTCAUO51Do-1">
          <mxGeometry x="33" y="2025" width="118" height="41" as="geometry" />
        </mxCell>
        <mxCell id="DJVKlbWjFwOTCAUO51Do-45" style="edgeStyle=none;curved=1;rounded=0;orthogonalLoop=1;jettySize=auto;html=1;exitX=0.75;exitY=0;exitDx=0;exitDy=0;fontSize=12;startSize=8;endSize=8;" edge="1" parent="DJVKlbWjFwOTCAUO51Do-1">
          <mxGeometry relative="1" as="geometry">
            <mxPoint x="-203.75" y="431" as="sourcePoint" />
            <mxPoint x="-203.75" y="431" as="targetPoint" />
          </mxGeometry>
        </mxCell>
        <mxCell id="DJVKlbWjFwOTCAUO51Do-46" style="edgeStyle=none;curved=1;rounded=0;orthogonalLoop=1;jettySize=auto;html=1;exitX=0.25;exitY=0;exitDx=0;exitDy=0;fontSize=12;startSize=8;endSize=8;" edge="1" parent="DJVKlbWjFwOTCAUO51Do-1" source="DJVKlbWjFwOTCAUO51Do-32" target="DJVKlbWjFwOTCAUO51Do-32">
          <mxGeometry relative="1" as="geometry" />
        </mxCell>
        <mxCell id="DJVKlbWjFwOTCAUO51Do-48" value="NO" style="edgeStyle=none;curved=1;rounded=0;orthogonalLoop=1;jettySize=auto;html=1;fontSize=12;startSize=8;endSize=8;" edge="1" parent="DJVKlbWjFwOTCAUO51Do-1" source="DJVKlbWjFwOTCAUO51Do-51" target="DJVKlbWjFwOTCAUO51Do-56">
          <mxGeometry relative="1" as="geometry">
            <mxPoint x="152" y="932" as="sourcePoint" />
          </mxGeometry>
        </mxCell>
        <mxCell id="DJVKlbWjFwOTCAUO51Do-49" style="edgeStyle=none;curved=1;rounded=0;orthogonalLoop=1;jettySize=auto;html=1;fontSize=12;startSize=8;endSize=8;" edge="1" parent="DJVKlbWjFwOTCAUO51Do-1" source="DJVKlbWjFwOTCAUO51Do-51" target="DJVKlbWjFwOTCAUO51Do-52">
          <mxGeometry relative="1" as="geometry" />
        </mxCell>
        <mxCell id="DJVKlbWjFwOTCAUO51Do-50" value="SI" style="edgeLabel;html=1;align=center;verticalAlign=middle;resizable=0;points=[];fontSize=16;" connectable="0" vertex="1" parent="DJVKlbWjFwOTCAUO51Do-49">
          <mxGeometry x="-0.0074" y="5" relative="1" as="geometry">
            <mxPoint as="offset" />
          </mxGeometry>
        </mxCell>
        <mxCell id="DJVKlbWjFwOTCAUO51Do-51" value="&lt;font style=&quot;font-size: 12px;&quot;&gt;¿Hora de salida está dentro 00:01 -08:00?&lt;/font&gt;" style="rhombus;whiteSpace=wrap;html=1;fontSize=16;" vertex="1" parent="DJVKlbWjFwOTCAUO51Do-1">
          <mxGeometry x="75.5" y="800" width="149.75" height="106" as="geometry" />
        </mxCell>
        <mxCell id="OaD3FQ7PiitbQFgvb0ac-7" style="edgeStyle=orthogonalEdgeStyle;rounded=0;orthogonalLoop=1;jettySize=auto;html=1;fontSize=12;startSize=8;endSize=8;" edge="1" parent="DJVKlbWjFwOTCAUO51Do-1" source="DJVKlbWjFwOTCAUO51Do-52" target="OaD3FQ7PiitbQFgvb0ac-17">
          <mxGeometry relative="1" as="geometry">
            <mxPoint x="-244" y="1653" as="targetPoint" />
            <Array as="points">
              <mxPoint x="-217" y="851" />
              <mxPoint x="-217" y="1673" />
            </Array>
          </mxGeometry>
        </mxCell>
        <mxCell id="DJVKlbWjFwOTCAUO51Do-52" value="Asigna velocidad media de 50 km/h" style="rounded=0;whiteSpace=wrap;html=1;fontSize=12;" vertex="1" parent="DJVKlbWjFwOTCAUO51Do-1">
          <mxGeometry x="-133" y="826" width="113" height="49" as="geometry" />
        </mxCell>
        <mxCell id="DJVKlbWjFwOTCAUO51Do-53" value="NO" style="edgeStyle=none;curved=1;rounded=0;orthogonalLoop=1;jettySize=auto;html=1;fontSize=12;startSize=8;endSize=8;" edge="1" parent="DJVKlbWjFwOTCAUO51Do-1" source="DJVKlbWjFwOTCAUO51Do-56" target="DJVKlbWjFwOTCAUO51Do-60">
          <mxGeometry relative="1" as="geometry" />
        </mxCell>
        <mxCell id="DJVKlbWjFwOTCAUO51Do-54" value="" style="edgeStyle=none;curved=1;rounded=0;orthogonalLoop=1;jettySize=auto;html=1;fontSize=12;startSize=8;endSize=8;" edge="1" parent="DJVKlbWjFwOTCAUO51Do-1" source="DJVKlbWjFwOTCAUO51Do-56" target="DJVKlbWjFwOTCAUO51Do-57">
          <mxGeometry relative="1" as="geometry" />
        </mxCell>
        <mxCell id="DJVKlbWjFwOTCAUO51Do-55" value="SI" style="edgeLabel;html=1;align=center;verticalAlign=middle;resizable=0;points=[];fontSize=16;" connectable="0" vertex="1" parent="DJVKlbWjFwOTCAUO51Do-54">
          <mxGeometry x="-0.4208" y="2" relative="1" as="geometry">
            <mxPoint x="-17" y="-2" as="offset" />
          </mxGeometry>
        </mxCell>
        <mxCell id="DJVKlbWjFwOTCAUO51Do-56" value="&lt;font style=&quot;font-size: 12px;&quot;&gt;¿Está dentro de &lt;br&gt;08:01 -12:00&lt;/font&gt;" style="rhombus;whiteSpace=wrap;html=1;fontSize=16;" vertex="1" parent="DJVKlbWjFwOTCAUO51Do-1">
          <mxGeometry x="84.25" y="981" width="123.75" height="95" as="geometry" />
        </mxCell>
        <mxCell id="OaD3FQ7PiitbQFgvb0ac-21" style="edgeStyle=orthogonalEdgeStyle;rounded=0;orthogonalLoop=1;jettySize=auto;html=1;fontSize=12;startSize=8;endSize=8;" edge="1" parent="DJVKlbWjFwOTCAUO51Do-1" source="DJVKlbWjFwOTCAUO51Do-57" target="OaD3FQ7PiitbQFgvb0ac-17">
          <mxGeometry relative="1" as="geometry">
            <Array as="points">
              <mxPoint x="-217" y="1028" />
              <mxPoint x="-217" y="1673" />
            </Array>
          </mxGeometry>
        </mxCell>
        <mxCell id="DJVKlbWjFwOTCAUO51Do-57" value="Asigna velocidad de &lt;br&gt;35 km/h" style="rounded=0;whiteSpace=wrap;html=1;fontSize=12;" vertex="1" parent="DJVKlbWjFwOTCAUO51Do-1">
          <mxGeometry x="-130" y="1005" width="110" height="46" as="geometry" />
        </mxCell>
        <mxCell id="DJVKlbWjFwOTCAUO51Do-58" value="NO" style="edgeStyle=none;curved=1;rounded=0;orthogonalLoop=1;jettySize=auto;html=1;fontSize=12;startSize=8;endSize=8;" edge="1" parent="DJVKlbWjFwOTCAUO51Do-1" source="DJVKlbWjFwOTCAUO51Do-60" target="DJVKlbWjFwOTCAUO51Do-64">
          <mxGeometry relative="1" as="geometry" />
        </mxCell>
        <mxCell id="DJVKlbWjFwOTCAUO51Do-59" value="SI" style="edgeStyle=none;curved=1;rounded=0;orthogonalLoop=1;jettySize=auto;html=1;fontSize=12;startSize=8;endSize=8;" edge="1" parent="DJVKlbWjFwOTCAUO51Do-1" source="DJVKlbWjFwOTCAUO51Do-60" target="DJVKlbWjFwOTCAUO51Do-67">
          <mxGeometry relative="1" as="geometry" />
        </mxCell>
        <mxCell id="DJVKlbWjFwOTCAUO51Do-60" value="¿Está dentro de&lt;br&gt;&amp;nbsp;12:01 - 18:00?&amp;nbsp;" style="rhombus;whiteSpace=wrap;html=1;fontSize=12;" vertex="1" parent="DJVKlbWjFwOTCAUO51Do-1">
          <mxGeometry x="85" y="1160" width="128" height="89" as="geometry" />
        </mxCell>
        <mxCell id="DJVKlbWjFwOTCAUO51Do-62" value="NO" style="edgeStyle=orthogonalEdgeStyle;rounded=0;orthogonalLoop=1;jettySize=auto;html=1;fontSize=12;startSize=8;endSize=8;" edge="1" parent="DJVKlbWjFwOTCAUO51Do-1" source="DJVKlbWjFwOTCAUO51Do-64" target="DJVKlbWjFwOTCAUO51Do-69">
          <mxGeometry relative="1" as="geometry">
            <mxPoint x="147.37928305602009" y="1455.4732208581268" as="targetPoint" />
            <Array as="points">
              <mxPoint x="149" y="1493" />
            </Array>
          </mxGeometry>
        </mxCell>
        <mxCell id="DJVKlbWjFwOTCAUO51Do-63" value="SI" style="edgeStyle=none;curved=1;rounded=0;orthogonalLoop=1;jettySize=auto;html=1;fontSize=12;startSize=8;endSize=8;" edge="1" parent="DJVKlbWjFwOTCAUO51Do-1" source="DJVKlbWjFwOTCAUO51Do-64" target="DJVKlbWjFwOTCAUO51Do-68">
          <mxGeometry relative="1" as="geometry" />
        </mxCell>
        <mxCell id="DJVKlbWjFwOTCAUO51Do-64" value="¿Está dentro de &lt;br&gt;18:01 - 22:00?&amp;nbsp;" style="rhombus;whiteSpace=wrap;html=1;fontSize=12;" vertex="1" parent="DJVKlbWjFwOTCAUO51Do-1">
          <mxGeometry x="86.13" y="1316" width="125" height="94" as="geometry" />
        </mxCell>
        <mxCell id="OaD3FQ7PiitbQFgvb0ac-20" style="edgeStyle=orthogonalEdgeStyle;rounded=0;orthogonalLoop=1;jettySize=auto;html=1;fontSize=12;startSize=8;endSize=8;" edge="1" parent="DJVKlbWjFwOTCAUO51Do-1" source="DJVKlbWjFwOTCAUO51Do-67" target="OaD3FQ7PiitbQFgvb0ac-17">
          <mxGeometry relative="1" as="geometry">
            <Array as="points">
              <mxPoint x="-217" y="1205" />
              <mxPoint x="-217" y="1673" />
            </Array>
          </mxGeometry>
        </mxCell>
        <mxCell id="DJVKlbWjFwOTCAUO51Do-67" value="Asigna velocidad de &lt;br&gt;42 km/h" style="rounded=0;whiteSpace=wrap;html=1;fontSize=12;" vertex="1" parent="DJVKlbWjFwOTCAUO51Do-1">
          <mxGeometry x="-124" y="1181.5" width="110" height="46" as="geometry" />
        </mxCell>
        <mxCell id="OaD3FQ7PiitbQFgvb0ac-19" style="edgeStyle=orthogonalEdgeStyle;rounded=0;orthogonalLoop=1;jettySize=auto;html=1;fontSize=12;startSize=8;endSize=8;" edge="1" parent="DJVKlbWjFwOTCAUO51Do-1" source="DJVKlbWjFwOTCAUO51Do-68" target="OaD3FQ7PiitbQFgvb0ac-17">
          <mxGeometry relative="1" as="geometry">
            <Array as="points">
              <mxPoint x="-216" y="1363" />
              <mxPoint x="-216" y="1673" />
            </Array>
          </mxGeometry>
        </mxCell>
        <mxCell id="DJVKlbWjFwOTCAUO51Do-68" value="Asigna velocidad de &lt;br&gt;30 km/h" style="rounded=0;whiteSpace=wrap;html=1;fontSize=12;" vertex="1" parent="DJVKlbWjFwOTCAUO51Do-1">
          <mxGeometry x="-124" y="1340" width="110" height="46" as="geometry" />
        </mxCell>
        <mxCell id="OaD3FQ7PiitbQFgvb0ac-18" style="edgeStyle=orthogonalEdgeStyle;rounded=0;orthogonalLoop=1;jettySize=auto;html=1;fontSize=12;startSize=8;endSize=8;" edge="1" parent="DJVKlbWjFwOTCAUO51Do-1" source="DJVKlbWjFwOTCAUO51Do-69" target="OaD3FQ7PiitbQFgvb0ac-17">
          <mxGeometry relative="1" as="geometry">
            <Array as="points">
              <mxPoint x="-215" y="1505" />
              <mxPoint x="-215" y="1673" />
            </Array>
          </mxGeometry>
        </mxCell>
        <mxCell id="DJVKlbWjFwOTCAUO51Do-69" value="Asigna velocidad de &lt;br&gt;50 km/h" style="rounded=0;whiteSpace=wrap;html=1;fontSize=12;" vertex="1" parent="DJVKlbWjFwOTCAUO51Do-1">
          <mxGeometry x="-126" y="1470" width="110" height="46" as="geometry" />
        </mxCell>
        <mxCell id="DJVKlbWjFwOTCAUO51Do-70" value="SI" style="edgeStyle=none;curved=1;rounded=0;orthogonalLoop=1;jettySize=auto;html=1;fontSize=12;startSize=8;endSize=8;" edge="1" parent="DJVKlbWjFwOTCAUO51Do-1" source="DJVKlbWjFwOTCAUO51Do-72" target="DJVKlbWjFwOTCAUO51Do-51">
          <mxGeometry relative="1" as="geometry" />
        </mxCell>
        <mxCell id="VWVHDejCQI2ahtRvYN2B-4" value="NO" style="edgeStyle=none;curved=1;rounded=0;orthogonalLoop=1;jettySize=auto;html=1;fontSize=12;startSize=8;endSize=8;entryX=0.092;entryY=0.645;entryDx=0;entryDy=0;entryPerimeter=0;" edge="1" parent="DJVKlbWjFwOTCAUO51Do-1" source="DJVKlbWjFwOTCAUO51Do-72" target="OaD3FQ7PiitbQFgvb0ac-24">
          <mxGeometry x="0.0025" relative="1" as="geometry">
            <mxPoint x="348.5029787762196" y="709.7154027553679" as="targetPoint" />
            <mxPoint as="offset" />
          </mxGeometry>
        </mxCell>
        <mxCell id="DJVKlbWjFwOTCAUO51Do-72" value="¿Se seleccionó automáticamente taxi?" style="rhombus;whiteSpace=wrap;html=1;fontSize=12;direction=south;" vertex="1" parent="DJVKlbWjFwOTCAUO51Do-1">
          <mxGeometry x="91.5" y="653" width="117.75" height="104.5" as="geometry" />
        </mxCell>
        <mxCell id="VWVHDejCQI2ahtRvYN2B-5" value="NO" style="edgeStyle=none;curved=1;rounded=0;orthogonalLoop=1;jettySize=auto;html=1;fontSize=12;startSize=8;endSize=8;" edge="1" parent="DJVKlbWjFwOTCAUO51Do-1" source="VWVHDejCQI2ahtRvYN2B-8" target="VWVHDejCQI2ahtRvYN2B-13">
          <mxGeometry relative="1" as="geometry">
            <mxPoint x="411.75" y="926" as="sourcePoint" />
          </mxGeometry>
        </mxCell>
        <mxCell id="VWVHDejCQI2ahtRvYN2B-6" style="edgeStyle=none;curved=1;rounded=0;orthogonalLoop=1;jettySize=auto;html=1;fontSize=12;startSize=8;endSize=8;" edge="1" parent="DJVKlbWjFwOTCAUO51Do-1" source="VWVHDejCQI2ahtRvYN2B-8" target="VWVHDejCQI2ahtRvYN2B-9">
          <mxGeometry relative="1" as="geometry" />
        </mxCell>
        <mxCell id="VWVHDejCQI2ahtRvYN2B-7" value="SI" style="edgeLabel;html=1;align=center;verticalAlign=middle;resizable=0;points=[];fontSize=16;" connectable="0" vertex="1" parent="VWVHDejCQI2ahtRvYN2B-6">
          <mxGeometry x="-0.0074" y="5" relative="1" as="geometry">
            <mxPoint as="offset" />
          </mxGeometry>
        </mxCell>
        <mxCell id="VWVHDejCQI2ahtRvYN2B-8" value="&lt;font style=&quot;font-size: 12px;&quot;&gt;¿Hora de salida está dentro de &lt;br&gt;00:01 -08:00?&lt;/font&gt;" style="rhombus;whiteSpace=wrap;html=1;fontSize=16;" vertex="1" parent="DJVKlbWjFwOTCAUO51Do-1">
          <mxGeometry x="344" y="771" width="134" height="128" as="geometry" />
        </mxCell>
        <mxCell id="OaD3FQ7PiitbQFgvb0ac-26" style="edgeStyle=orthogonalEdgeStyle;rounded=0;orthogonalLoop=1;jettySize=auto;html=1;fontSize=12;startSize=8;endSize=8;" edge="1" parent="DJVKlbWjFwOTCAUO51Do-1" source="VWVHDejCQI2ahtRvYN2B-9" target="OaD3FQ7PiitbQFgvb0ac-17">
          <mxGeometry relative="1" as="geometry">
            <Array as="points">
              <mxPoint x="857" y="835" />
              <mxPoint x="857" y="1673" />
            </Array>
          </mxGeometry>
        </mxCell>
        <mxCell id="VWVHDejCQI2ahtRvYN2B-9" value="Asigna velocidad media de 45 km/h" style="rounded=0;whiteSpace=wrap;html=1;fontSize=12;" vertex="1" parent="DJVKlbWjFwOTCAUO51Do-1">
          <mxGeometry x="575.75" y="810.5" width="113" height="49" as="geometry" />
        </mxCell>
        <mxCell id="VWVHDejCQI2ahtRvYN2B-10" value="NO" style="edgeStyle=none;curved=1;rounded=0;orthogonalLoop=1;jettySize=auto;html=1;fontSize=12;startSize=8;endSize=8;" edge="1" parent="DJVKlbWjFwOTCAUO51Do-1" source="VWVHDejCQI2ahtRvYN2B-13" target="VWVHDejCQI2ahtRvYN2B-17">
          <mxGeometry relative="1" as="geometry" />
        </mxCell>
        <mxCell id="VWVHDejCQI2ahtRvYN2B-11" value="" style="edgeStyle=none;curved=1;rounded=0;orthogonalLoop=1;jettySize=auto;html=1;fontSize=12;startSize=8;endSize=8;" edge="1" parent="DJVKlbWjFwOTCAUO51Do-1" source="VWVHDejCQI2ahtRvYN2B-13" target="VWVHDejCQI2ahtRvYN2B-14">
          <mxGeometry relative="1" as="geometry" />
        </mxCell>
        <mxCell id="VWVHDejCQI2ahtRvYN2B-12" value="SI" style="edgeLabel;html=1;align=center;verticalAlign=middle;resizable=0;points=[];fontSize=16;" connectable="0" vertex="1" parent="VWVHDejCQI2ahtRvYN2B-11">
          <mxGeometry x="-0.4208" y="2" relative="1" as="geometry">
            <mxPoint x="-17" y="-2" as="offset" />
          </mxGeometry>
        </mxCell>
        <mxCell id="VWVHDejCQI2ahtRvYN2B-13" value="&lt;font style=&quot;font-size: 12px;&quot;&gt;¿Está dentro de &lt;br&gt;08:01 -12:00&lt;/font&gt;" style="rhombus;whiteSpace=wrap;html=1;fontSize=16;" vertex="1" parent="DJVKlbWjFwOTCAUO51Do-1">
          <mxGeometry x="344" y="975" width="123.75" height="95" as="geometry" />
        </mxCell>
        <mxCell id="VWVHDejCQI2ahtRvYN2B-14" value="Asigna velocidad de &lt;br&gt;30 km/h" style="rounded=0;whiteSpace=wrap;html=1;fontSize=12;" vertex="1" parent="DJVKlbWjFwOTCAUO51Do-1">
          <mxGeometry x="575.75" y="1000" width="110" height="46" as="geometry" />
        </mxCell>
        <mxCell id="VWVHDejCQI2ahtRvYN2B-15" value="NO" style="edgeStyle=none;curved=1;rounded=0;orthogonalLoop=1;jettySize=auto;html=1;fontSize=12;startSize=8;endSize=8;" edge="1" parent="DJVKlbWjFwOTCAUO51Do-1" source="VWVHDejCQI2ahtRvYN2B-17" target="VWVHDejCQI2ahtRvYN2B-20">
          <mxGeometry relative="1" as="geometry" />
        </mxCell>
        <mxCell id="VWVHDejCQI2ahtRvYN2B-16" value="SI" style="edgeStyle=none;curved=1;rounded=0;orthogonalLoop=1;jettySize=auto;html=1;fontSize=12;startSize=8;endSize=8;" edge="1" parent="DJVKlbWjFwOTCAUO51Do-1" source="VWVHDejCQI2ahtRvYN2B-17" target="VWVHDejCQI2ahtRvYN2B-23">
          <mxGeometry relative="1" as="geometry" />
        </mxCell>
        <mxCell id="VWVHDejCQI2ahtRvYN2B-17" value="¿Está dentro de&lt;br&gt;&amp;nbsp;12:01 - 18:00?&amp;nbsp;" style="rhombus;whiteSpace=wrap;html=1;fontSize=12;" vertex="1" parent="DJVKlbWjFwOTCAUO51Do-1">
          <mxGeometry x="344.75" y="1154" width="128" height="89" as="geometry" />
        </mxCell>
        <mxCell id="VWVHDejCQI2ahtRvYN2B-18" value="NO" style="edgeStyle=orthogonalEdgeStyle;rounded=0;orthogonalLoop=1;jettySize=auto;html=1;fontSize=12;startSize=8;endSize=8;" edge="1" parent="DJVKlbWjFwOTCAUO51Do-1" source="VWVHDejCQI2ahtRvYN2B-20" target="VWVHDejCQI2ahtRvYN2B-25">
          <mxGeometry relative="1" as="geometry">
            <mxPoint x="407.12928305601963" y="1449.4732208581268" as="targetPoint" />
            <Array as="points">
              <mxPoint x="408" y="1500" />
            </Array>
          </mxGeometry>
        </mxCell>
        <mxCell id="VWVHDejCQI2ahtRvYN2B-19" value="SI" style="edgeStyle=none;curved=1;rounded=0;orthogonalLoop=1;jettySize=auto;html=1;fontSize=12;startSize=8;endSize=8;" edge="1" parent="DJVKlbWjFwOTCAUO51Do-1" source="VWVHDejCQI2ahtRvYN2B-20" target="VWVHDejCQI2ahtRvYN2B-24">
          <mxGeometry relative="1" as="geometry" />
        </mxCell>
        <mxCell id="VWVHDejCQI2ahtRvYN2B-20" value="¿Está dentro de &lt;br&gt;18:01 - 22:00?&amp;nbsp;" style="rhombus;whiteSpace=wrap;html=1;fontSize=12;" vertex="1" parent="DJVKlbWjFwOTCAUO51Do-1">
          <mxGeometry x="345.88" y="1310" width="125" height="94" as="geometry" />
        </mxCell>
        <mxCell id="VWVHDejCQI2ahtRvYN2B-23" value="Asigna velocidad de &lt;br&gt;40 km/h" style="rounded=0;whiteSpace=wrap;html=1;fontSize=12;" vertex="1" parent="DJVKlbWjFwOTCAUO51Do-1">
          <mxGeometry x="575.75" y="1176.5" width="110" height="46" as="geometry" />
        </mxCell>
        <mxCell id="VWVHDejCQI2ahtRvYN2B-24" value="Asigna velocidad de &lt;br&gt;25 km/h" style="rounded=0;whiteSpace=wrap;html=1;fontSize=12;" vertex="1" parent="DJVKlbWjFwOTCAUO51Do-1">
          <mxGeometry x="581.75" y="1335" width="110" height="46" as="geometry" />
        </mxCell>
        <mxCell id="VWVHDejCQI2ahtRvYN2B-25" value="Asigna velocidad de &lt;br&gt;45 km/h" style="rounded=0;whiteSpace=wrap;html=1;fontSize=12;" vertex="1" parent="DJVKlbWjFwOTCAUO51Do-1">
          <mxGeometry x="577.25" y="1470" width="110" height="46" as="geometry" />
        </mxCell>
        <mxCell id="OaD3FQ7PiitbQFgvb0ac-5" style="edgeStyle=none;curved=1;rounded=0;orthogonalLoop=1;jettySize=auto;html=1;fontSize=12;startSize=8;endSize=8;" edge="1" parent="DJVKlbWjFwOTCAUO51Do-1" source="OaD3FQ7PiitbQFgvb0ac-0" target="OaD3FQ7PiitbQFgvb0ac-1">
          <mxGeometry relative="1" as="geometry" />
        </mxCell>
        <mxCell id="OaD3FQ7PiitbQFgvb0ac-0" value="Muestra tiempo de viaje" style="whiteSpace=wrap;html=1;rounded=0;" vertex="1" parent="DJVKlbWjFwOTCAUO51Do-1">
          <mxGeometry x="37" y="1863" width="112" height="45" as="geometry" />
        </mxCell>
        <mxCell id="OaD3FQ7PiitbQFgvb0ac-6" value="" style="edgeStyle=none;curved=1;rounded=0;orthogonalLoop=1;jettySize=auto;html=1;fontSize=12;startSize=8;endSize=8;" edge="1" parent="DJVKlbWjFwOTCAUO51Do-1" source="OaD3FQ7PiitbQFgvb0ac-1" target="DJVKlbWjFwOTCAUO51Do-38">
          <mxGeometry relative="1" as="geometry" />
        </mxCell>
        <mxCell id="OaD3FQ7PiitbQFgvb0ac-1" value="Se habilita botón Pedir" style="whiteSpace=wrap;html=1;rounded=0;" vertex="1" parent="DJVKlbWjFwOTCAUO51Do-1">
          <mxGeometry x="36" y="1932" width="113" height="52" as="geometry" />
        </mxCell>
        <mxCell id="OaD3FQ7PiitbQFgvb0ac-22" style="edgeStyle=orthogonalEdgeStyle;rounded=0;orthogonalLoop=1;jettySize=auto;html=1;fontSize=12;startSize=8;endSize=8;" edge="1" parent="DJVKlbWjFwOTCAUO51Do-1" source="OaD3FQ7PiitbQFgvb0ac-12" target="OaD3FQ7PiitbQFgvb0ac-17">
          <mxGeometry relative="1" as="geometry">
            <Array as="points">
              <mxPoint x="-529" y="344" />
              <mxPoint x="-529" y="1673" />
            </Array>
          </mxGeometry>
        </mxCell>
        <mxCell id="OaD3FQ7PiitbQFgvb0ac-12" value="&lt;font style=&quot;vertical-align: inherit;&quot;&gt;&lt;font style=&quot;vertical-align: inherit;&quot;&gt;Usuario elige otro modo deseado&amp;nbsp;&amp;nbsp;&lt;br&gt;&lt;br&gt;&lt;/font&gt;&lt;/font&gt;" style="whiteSpace=wrap;html=1;rounded=0;verticalAlign=middle;" vertex="1" parent="DJVKlbWjFwOTCAUO51Do-1">
          <mxGeometry x="-466" y="321.5" width="98" height="45" as="geometry" />
        </mxCell>
        <mxCell id="OaD3FQ7PiitbQFgvb0ac-23" style="edgeStyle=none;curved=1;rounded=0;orthogonalLoop=1;jettySize=auto;html=1;fontSize=12;startSize=8;endSize=8;" edge="1" parent="DJVKlbWjFwOTCAUO51Do-1" source="OaD3FQ7PiitbQFgvb0ac-17" target="DJVKlbWjFwOTCAUO51Do-30">
          <mxGeometry relative="1" as="geometry" />
        </mxCell>
        <mxCell id="OaD3FQ7PiitbQFgvb0ac-17" value="Se construye ruta" style="whiteSpace=wrap;html=1;fontSize=12;" vertex="1" parent="DJVKlbWjFwOTCAUO51Do-1">
          <mxGeometry x="43" y="1650" width="106" height="45.5" as="geometry" />
        </mxCell>
        <mxCell id="OaD3FQ7PiitbQFgvb0ac-25" value="" style="edgeStyle=none;curved=1;rounded=0;orthogonalLoop=1;jettySize=auto;html=1;fontSize=12;startSize=8;endSize=8;" edge="1" parent="DJVKlbWjFwOTCAUO51Do-1" source="OaD3FQ7PiitbQFgvb0ac-24" target="VWVHDejCQI2ahtRvYN2B-8">
          <mxGeometry relative="1" as="geometry" />
        </mxCell>
        <mxCell id="OaD3FQ7PiitbQFgvb0ac-24" value="Se seleccionó&amp;nbsp; automóvil compartido" style="rounded=0;whiteSpace=wrap;html=1;fontSize=12;" vertex="1" parent="DJVKlbWjFwOTCAUO51Do-1">
          <mxGeometry x="351" y="671" width="120" height="60" as="geometry" />
        </mxCell>
        <mxCell id="OaD3FQ7PiitbQFgvb0ac-29" value="" style="endArrow=none;html=1;rounded=0;fontSize=12;startSize=8;endSize=8;edgeStyle=orthogonalEdgeStyle;" edge="1" parent="DJVKlbWjFwOTCAUO51Do-1" source="VWVHDejCQI2ahtRvYN2B-14" target="OaD3FQ7PiitbQFgvb0ac-17">
          <mxGeometry width="50" height="50" relative="1" as="geometry">
            <mxPoint x="640" y="1281" as="sourcePoint" />
            <mxPoint x="859" y="1023" as="targetPoint" />
            <Array as="points">
              <mxPoint x="857" y="1023" />
              <mxPoint x="857" y="1673" />
            </Array>
          </mxGeometry>
        </mxCell>
        <mxCell id="OaD3FQ7PiitbQFgvb0ac-30" value="" style="endArrow=none;html=1;rounded=0;fontSize=12;startSize=8;endSize=8;edgeStyle=orthogonalEdgeStyle;" edge="1" parent="DJVKlbWjFwOTCAUO51Do-1" source="OaD3FQ7PiitbQFgvb0ac-17" target="VWVHDejCQI2ahtRvYN2B-23">
          <mxGeometry width="50" height="50" relative="1" as="geometry">
            <mxPoint x="640" y="1283" as="sourcePoint" />
            <mxPoint x="690" y="1233" as="targetPoint" />
            <Array as="points">
              <mxPoint x="858" y="1673" />
              <mxPoint x="858" y="1200" />
            </Array>
          </mxGeometry>
        </mxCell>
        <mxCell id="OaD3FQ7PiitbQFgvb0ac-31" value="" style="endArrow=none;html=1;rounded=0;fontSize=12;startSize=8;endSize=8;edgeStyle=orthogonalEdgeStyle;" edge="1" parent="DJVKlbWjFwOTCAUO51Do-1" source="OaD3FQ7PiitbQFgvb0ac-17" target="VWVHDejCQI2ahtRvYN2B-24">
          <mxGeometry width="50" height="50" relative="1" as="geometry">
            <mxPoint x="640" y="1284" as="sourcePoint" />
            <mxPoint x="690" y="1234" as="targetPoint" />
            <Array as="points">
              <mxPoint x="858" y="1673" />
              <mxPoint x="858" y="1358" />
            </Array>
          </mxGeometry>
        </mxCell>
        <mxCell id="OaD3FQ7PiitbQFgvb0ac-32" value="" style="endArrow=none;html=1;rounded=0;fontSize=12;startSize=8;endSize=8;edgeStyle=orthogonalEdgeStyle;" edge="1" parent="DJVKlbWjFwOTCAUO51Do-1" source="OaD3FQ7PiitbQFgvb0ac-17" target="VWVHDejCQI2ahtRvYN2B-25">
          <mxGeometry width="50" height="50" relative="1" as="geometry">
            <mxPoint x="640" y="1284" as="sourcePoint" />
            <mxPoint x="690" y="1234" as="targetPoint" />
            <Array as="points">
              <mxPoint x="858" y="1673" />
              <mxPoint x="858" y="1500" />
            </Array>
          </mxGeometry>
        </mxCell>
        <mxCell id="PXPxvty9Y-9l5OLoqY82-0" value="" style="edgeStyle=orthogonalEdgeStyle;rounded=0;orthogonalLoop=1;jettySize=auto;html=1;" edge="1" parent="DJVKlbWjFwOTCAUO51Do-1" source="PXPxvty9Y-9l5OLoqY82-2" target="PXPxvty9Y-9l5OLoqY82-3">
          <mxGeometry relative="1" as="geometry" />
        </mxCell>
        <mxCell id="PXPxvty9Y-9l5OLoqY82-1" value="" style="edgeStyle=orthogonalEdgeStyle;rounded=0;orthogonalLoop=1;jettySize=auto;html=1;" edge="1" parent="DJVKlbWjFwOTCAUO51Do-1" source="PXPxvty9Y-9l5OLoqY82-3" target="PXPxvty9Y-9l5OLoqY82-6">
          <mxGeometry relative="1" as="geometry" />
        </mxCell>
        <mxCell id="PXPxvty9Y-9l5OLoqY82-2" value="Usuario accede a&amp;nbsp;&lt;br&gt;Urban.Routes" style="rounded=0;whiteSpace=wrap;html=1;" vertex="1" parent="DJVKlbWjFwOTCAUO51Do-1">
          <mxGeometry x="99.5" y="-354" width="120" height="60" as="geometry" />
        </mxCell>
        <mxCell id="PXPxvty9Y-9l5OLoqY82-3" value="Ingresa &lt;br&gt;Hora de Salida&amp;nbsp;" style="rounded=0;whiteSpace=wrap;html=1;" vertex="1" parent="DJVKlbWjFwOTCAUO51Do-1">
          <mxGeometry x="99.5" y="-261" width="120" height="60" as="geometry" />
        </mxCell>
        <mxCell id="PXPxvty9Y-9l5OLoqY82-4" value="SI" style="edgeStyle=orthogonalEdgeStyle;rounded=0;orthogonalLoop=1;jettySize=auto;html=1;" edge="1" parent="DJVKlbWjFwOTCAUO51Do-1" source="PXPxvty9Y-9l5OLoqY82-6" target="PXPxvty9Y-9l5OLoqY82-8">
          <mxGeometry relative="1" as="geometry" />
        </mxCell>
        <mxCell id="PXPxvty9Y-9l5OLoqY82-5" value="NO" style="edgeStyle=orthogonalEdgeStyle;rounded=0;orthogonalLoop=1;jettySize=auto;html=1;" edge="1" parent="DJVKlbWjFwOTCAUO51Do-1" source="PXPxvty9Y-9l5OLoqY82-6" target="PXPxvty9Y-9l5OLoqY82-10">
          <mxGeometry relative="1" as="geometry" />
        </mxCell>
        <mxCell id="PXPxvty9Y-9l5OLoqY82-6" value="¿Hora de salida es valida?" style="rhombus;whiteSpace=wrap;html=1;rounded=1;" vertex="1" parent="DJVKlbWjFwOTCAUO51Do-1">
          <mxGeometry x="119.5" y="-174" width="80" height="80" as="geometry" />
        </mxCell>
        <mxCell id="PXPxvty9Y-9l5OLoqY82-7" value="" style="edgeStyle=orthogonalEdgeStyle;rounded=0;orthogonalLoop=1;jettySize=auto;html=1;" edge="1" parent="DJVKlbWjFwOTCAUO51Do-1" source="PXPxvty9Y-9l5OLoqY82-8" target="PXPxvty9Y-9l5OLoqY82-12">
          <mxGeometry relative="1" as="geometry" />
        </mxCell>
        <mxCell id="PXPxvty9Y-9l5OLoqY82-8" value="Ingresa dirección Desde/Hasta" style="whiteSpace=wrap;html=1;rounded=0;" vertex="1" parent="DJVKlbWjFwOTCAUO51Do-1">
          <mxGeometry x="99.5" y="-49" width="120" height="60" as="geometry" />
        </mxCell>
        <mxCell id="KzSWz-yIyAN-D3M2lg_o-1" style="edgeStyle=orthogonalEdgeStyle;rounded=0;orthogonalLoop=1;jettySize=auto;html=1;fontSize=12;startSize=8;endSize=8;" edge="1" parent="DJVKlbWjFwOTCAUO51Do-1" source="PXPxvty9Y-9l5OLoqY82-10" target="PXPxvty9Y-9l5OLoqY82-3">
          <mxGeometry relative="1" as="geometry">
            <Array as="points">
              <mxPoint x="494" y="-227" />
            </Array>
          </mxGeometry>
        </mxCell>
        <mxCell id="PXPxvty9Y-9l5OLoqY82-10" value="Muestra Mensaje&amp;nbsp;&lt;br&gt;&lt;i&gt;&lt;b&gt;&lt;font color=&quot;#ff3333&quot;&gt;&quot;Has&amp;nbsp;introducido una hora incorrecta&quot;&lt;/font&gt;&lt;/b&gt;&lt;/i&gt;" style="whiteSpace=wrap;html=1;rounded=0;" vertex="1" parent="DJVKlbWjFwOTCAUO51Do-1">
          <mxGeometry x="434" y="-164" width="120" height="60" as="geometry" />
        </mxCell>
        <mxCell id="PXPxvty9Y-9l5OLoqY82-11" value="NO" style="edgeStyle=orthogonalEdgeStyle;rounded=0;orthogonalLoop=1;jettySize=auto;html=1;fontSize=12;" edge="1" parent="DJVKlbWjFwOTCAUO51Do-1" source="PXPxvty9Y-9l5OLoqY82-12" target="PXPxvty9Y-9l5OLoqY82-14">
          <mxGeometry relative="1" as="geometry" />
        </mxCell>
        <mxCell id="PXPxvty9Y-9l5OLoqY82-19" style="edgeStyle=none;curved=1;rounded=0;orthogonalLoop=1;jettySize=auto;html=1;fontSize=12;startSize=8;endSize=8;" edge="1" parent="DJVKlbWjFwOTCAUO51Do-1" source="PXPxvty9Y-9l5OLoqY82-12" target="DJVKlbWjFwOTCAUO51Do-35">
          <mxGeometry relative="1" as="geometry" />
        </mxCell>
        <mxCell id="PXPxvty9Y-9l5OLoqY82-20" value="SI" style="edgeLabel;html=1;align=center;verticalAlign=middle;resizable=0;points=[];fontSize=12;" vertex="1" connectable="0" parent="PXPxvty9Y-9l5OLoqY82-19">
          <mxGeometry x="-0.0469" relative="1" as="geometry">
            <mxPoint as="offset" />
          </mxGeometry>
        </mxCell>
        <mxCell id="PXPxvty9Y-9l5OLoqY82-12" value="¿Dirección es correcta?" style="rhombus;whiteSpace=wrap;html=1;rounded=1;" vertex="1" parent="DJVKlbWjFwOTCAUO51Do-1">
          <mxGeometry x="113" y="39" width="93" height="84" as="geometry" />
        </mxCell>
        <mxCell id="KzSWz-yIyAN-D3M2lg_o-0" style="edgeStyle=orthogonalEdgeStyle;rounded=0;orthogonalLoop=1;jettySize=auto;html=1;fontSize=12;startSize=8;endSize=8;" edge="1" parent="DJVKlbWjFwOTCAUO51Do-1" source="PXPxvty9Y-9l5OLoqY82-14" target="PXPxvty9Y-9l5OLoqY82-8">
          <mxGeometry relative="1" as="geometry">
            <Array as="points">
              <mxPoint x="374" y="-19" />
            </Array>
          </mxGeometry>
        </mxCell>
        <mxCell id="PXPxvty9Y-9l5OLoqY82-14" value="Muestra Mensaje&amp;nbsp;&lt;br style=&quot;border-color: var(--border-color);&quot;&gt;&lt;i style=&quot;border-color: var(--border-color);&quot;&gt;&lt;b style=&quot;border-color: var(--border-color);&quot;&gt;&lt;font style=&quot;border-color: var(--border-color);&quot; color=&quot;#ff3333&quot;&gt;&quot;Has&amp;nbsp;introducido una&amp;nbsp;dirección&lt;br&gt;&amp;nbsp;incorrecta&quot;&lt;/font&gt;&lt;/b&gt;&lt;/i&gt;" style="whiteSpace=wrap;html=1;rounded=0;" vertex="1" parent="DJVKlbWjFwOTCAUO51Do-1">
          <mxGeometry x="314" y="51" width="120" height="60" as="geometry" />
        </mxCell>
        <mxCell id="KzSWz-yIyAN-D3M2lg_o-2" style="edgeStyle=none;curved=1;rounded=0;orthogonalLoop=1;jettySize=auto;html=1;fontSize=12;startSize=8;endSize=8;" edge="1" parent="DJVKlbWjFwOTCAUO51Do-1" source="PXPxvty9Y-9l5OLoqY82-15" target="PXPxvty9Y-9l5OLoqY82-2">
          <mxGeometry relative="1" as="geometry" />
        </mxCell>
        <mxCell id="PXPxvty9Y-9l5OLoqY82-15" value="Inicio" style="rounded=1;whiteSpace=wrap;html=1;" vertex="1" parent="DJVKlbWjFwOTCAUO51Do-1">
          <mxGeometry x="99.5" y="-445" width="120" height="60" as="geometry" />
        </mxCell>
      </root>
    </mxGraphModel>
  </diagram>
</mxfile>
